<svg xmlns="http://www.w3.org/2000/svg" viewBox="0 0 800 1050">
  <!-- Background -->
  <rect width="800" height="1050" fill="#27008b" />
  
  <!-- Title -->
  <rect x="100" y="50" width="600" height="60" rx="10" ry="10" fill="#f0f0f0" opacity="0.9" />
  <text x="400" y="80" font-family="Arial, sans-serif" font-size="28" text-anchor="middle" font-weight="bold" fill="#333">Back-Face Culling in WebGL</text>
  
  <!-- Main content container -->
  <g transform="translate(0, 35)">
    <rect x="40" y="100" width="720" height="360" rx="15" ry="15" fill="#f0f0f0" opacity="0.9" />
  
    <!-- Left panel - Culling Disabled -->
    <g transform="translate(50, 110)">
      <rect x="0" y="0" width="340" height="340" rx="10" ry="10" fill="white" stroke="#ddd" stroke-width="1" />
      <text x="170" y="30" font-family="Arial, sans-serif" font-size="20" text-anchor="middle" font-weight="bold" fill="#333">Culling Disabled</text>
      
      <!-- Viewer position -->
      <circle cx="170" cy="190" r="10" fill="#1890ff" stroke="#333" stroke-width="1.5" />
      <text x="170" y="210" font-family="Arial, sans-serif" font-size="14" text-anchor="middle" fill="#333">You (viewer)</text>
      
      <!-- Cube in 3D perspective -->
      <!-- Front face -->
      <polygon points="110,120 230,120 230,240 110,240" fill="#52c41a" stroke="#333" stroke-width="2" />
      <text x="170" y="180" font-family="Arial, sans-serif" font-size="16" text-anchor="middle" fill="#333">Front Face</text>
      <text x="170" y="200" font-family="Arial, sans-serif" font-size="14" text-anchor="middle" fill="#333">CCW Winding</text>
      
      <!-- Right side face -->
      <polygon points="230,120 270,80 270,200 230,240" fill="#fa8c16" stroke="#333" stroke-width="2" />
      <text x="250" y="160" font-family="Arial, sans-serif" font-size="14" text-anchor="middle" fill="#333">Side</text>
      
      <!-- Top face -->
      <polygon points="110,120 230,120 270,80 150,80" fill="#722ed1" stroke="#333" stroke-width="2" />
      <text x="190" y="100" font-family="Arial, sans-serif" font-size="14" text-anchor="middle" fill="#333">Top</text>
      
      <!-- Hidden faces (dashed to show they'd normally be occluded) -->
      <polygon points="110,240 230,240 270,200 150,200" fill="#f5222d" stroke="#333" stroke-width="2" stroke-dasharray="5,3" opacity="0.4" />
      <text x="190" y="220" font-family="Arial, sans-serif" font-size="14" text-anchor="middle" fill="#333" opacity="0.4">Bottom</text>
      
      <polygon points="110,120 110,240 150,200 150,80" fill="#faad14" stroke="#333" stroke-width="2" stroke-dasharray="5,3" opacity="0.4" />
      <text x="120" y="160" font-family="Arial, sans-serif" font-size="14" text-anchor="middle" fill="#333" opacity="0.4">Left</text>
      
      <polygon points="150,80 270,80 270,200 150,200" fill="#eb2f96" stroke="#333" stroke-width="2" stroke-dasharray="5,3" opacity="0.4" />
      <text x="210" y="140" font-family="Arial, sans-serif" font-size="14" text-anchor="middle" fill="#333" opacity="0.4">Back</text>
      
      <!-- Label -->
      <text x="170" y="270" font-family="Arial, sans-serif" font-size="14" text-anchor="middle" fill="#333">All faces are rendered</text>
      <text x="170" y="290" font-family="Arial, sans-serif" font-size="14" text-anchor="middle" fill="#333">(including those facing away from viewer)</text>
      <text x="170" y="320" font-family="Arial, sans-serif" font-size="14" text-anchor="middle" font-weight="bold" fill="#333">More GPU Work</text>
    </g>
    
    <!-- Right panel - Culling Enabled -->
    <g transform="translate(410, 110)">
      <rect x="0" y="0" width="340" height="340" rx="10" ry="10" fill="white" stroke="#ddd" stroke-width="1" />
      <text x="170" y="30" font-family="Arial, sans-serif" font-size="20" text-anchor="middle" font-weight="bold" fill="#333">Culling Enabled</text>
      
      <!-- Viewer position -->
      <circle cx="170" cy="190" r="10" fill="#1890ff" stroke="#333" stroke-width="1.5" />
      <text x="170" y="210" font-family="Arial, sans-serif" font-size="14" text-anchor="middle" fill="#333">You (viewer)</text>
      
      <!-- Cube in 3D perspective (only visible faces) -->
      <!-- Front face -->
      <polygon points="110,120 230,120 230,240 110,240" fill="#52c41a" stroke="#333" stroke-width="2" />
      <text x="170" y="180" font-family="Arial, sans-serif" font-size="16" text-anchor="middle" fill="#333">Front Face</text>
      <text x="170" y="200" font-family="Arial, sans-serif" font-size="14" text-anchor="middle" fill="#333">CCW Winding</text>
      
      <!-- Right side face -->
      <polygon points="230,120 270,80 270,200 230,240" fill="#fa8c16" stroke="#333" stroke-width="2" />
      <text x="250" y="160" font-family="Arial, sans-serif" font-size="14" text-anchor="middle" fill="#333">Side</text>
      
      <!-- Top face -->
      <polygon points="110,120 230,120 270,80 150,80" fill="#722ed1" stroke="#333" stroke-width="2" />
      <text x="190" y="100" font-family="Arial, sans-serif" font-size="14" text-anchor="middle" fill="#333">Top</text>
      
      <!-- Faded outlines to show culled faces -->
      <polygon points="110,240 230,240 270,200 150,200" fill="none" stroke="#f5222d" stroke-width="2" stroke-dasharray="5,3" opacity="0.3" />
      <text x="190" y="220" font-family="Arial, sans-serif" font-size="14" text-anchor="middle" fill="#f5222d" opacity="0.3">Culled</text>
      
      <polygon points="110,120 110,240 150,200 150,80" fill="none" stroke="#faad14" stroke-width="2" stroke-dasharray="5,3" opacity="0.3" />
      <text x="120" y="160" font-family="Arial, sans-serif" font-size="14" text-anchor="middle" fill="#faad14" opacity="0.3">Culled</text>
      
      <polygon points="150,80 270,80 270,200 150,200" fill="none" stroke="#eb2f96" stroke-width="2" stroke-dasharray="5,3" opacity="0.3" />
      <text x="210" y="140" font-family="Arial, sans-serif" font-size="14" text-anchor="middle" fill="#eb2f96" opacity="0.3">Culled</text>
      
      <!-- Label -->
      <text x="170" y="270" font-family="Arial, sans-serif" font-size="14" text-anchor="middle" fill="#333">Only faces with counter-clockwise winding</text>
      <text x="170" y="290" font-family="Arial, sans-serif" font-size="14" text-anchor="middle" fill="#333">when viewed from your perspective are rendered</text>
      <text x="170" y="320" font-family="Arial, sans-serif" font-size="14" text-anchor="middle" font-weight="bold" fill="#333">30-50% Performance Improvement</text>
    </g>
  </g>
  
  <!-- Winding Order Explanation -->
  <rect x="40" y="520" width="720" height="290" rx="15" ry="15" fill="#f0f0f0" opacity="0.9" />
  
  <g transform="translate(400, 550)">
    <text x="0" y="0" font-family="Arial, sans-serif" font-size="22" text-anchor="middle" font-weight="bold" fill="#333">Triangle Winding Order Explained</text>
  </g>
  
  <!-- Same triangle with front and back sides -->
  <g transform="translate(150, 590)">
    <!-- Front face (green) -->
    <polygon points="0,100 160,100 80,0" fill="#52c41a" stroke="#333" stroke-width="2" />
    
    <!-- Vertex labels with clear numbering -->
    <circle cx="0" cy="100" r="8" fill="#1890ff" stroke="#333" stroke-width="1.5" />
    <text x="-5" y="125" font-family="Arial, sans-serif" font-size="18" font-weight="bold" fill="#5c5757">1</text>
    
    <circle cx="160" cy="100" r="8" fill="#1890ff" stroke="#333" stroke-width="1.5" />
    <text x="155" y="125" font-family="Arial, sans-serif" font-size="18" font-weight="bold" fill="#5c5757">2</text>
    
    <circle cx="80" cy="0" r="8" fill="#1890ff" stroke="#333" stroke-width="1.5" />
    <text x="75" y="-10" font-family="Arial, sans-serif" font-size="18" font-weight="bold" fill="#5c5757">3</text>
    
    <!-- Order arrows -->
    <path d="M 20,95 L 70,95" fill="none" stroke="white" stroke-width="2" />
    <polygon points="70,95 65,90 65,100" fill="white" />
    
    <path d="M 140,95 L 100,30" fill="none" stroke="white" stroke-width="2" />
    <polygon points="100,30 95,35 105,35" fill="white" />
    
    <path d="M 60,30 L 20,90" fill="none" stroke="white" stroke-width="2" />
    <polygon points="20,90 25,85 15,85" fill="white" />
    
    <text x="80" y="145" font-family="Arial, sans-serif" font-size="18" text-anchor="middle" font-weight="bold" fill="#5c5757">FRONT FACE (GREEN)</text>
    <text x="80" y="170" font-family="Arial, sans-serif" font-size="16" text-anchor="middle" fill="#5c5757">Counter-Clockwise Order (1→2→3)</text>
    <text x="80" y="190" font-family="Arial, sans-serif" font-size="16" text-anchor="middle" fill="#5c5757">Rendered when back-face culling is enabled</text>
  </g>
  
  <!-- Flipped triangle to show back face (same triangle from behind) -->
  <g transform="translate(650, 590)">
    <!-- Back face (red) - note: vertices are in reverse order when viewed from back -->
    <polygon points="0,100 -160,100 -80,0" fill="#f5222d" stroke="#333" stroke-width="2" />
    
    <!-- Vertex labels with clear numbering -->
    <circle cx="0" cy="100" r="8" fill="#1890ff" stroke="#333" stroke-width="1.5" />
    <text x="-5" y="125" font-family="Arial, sans-serif" font-size="18" font-weight="bold" fill="#5c5757">1</text>
    
    <circle cx="-160" cy="100" r="8" fill="#1890ff" stroke="#333" stroke-width="1.5" />
    <text x="-165" y="125" font-family="Arial, sans-serif" font-size="18" font-weight="bold" fill="#5c5757">3</text>
    
    <circle cx="-80" cy="0" r="8" fill="#1890ff" stroke="#333" stroke-width="1.5" />
    <text x="-85" y="-10" font-family="Arial, sans-serif" font-size="18" font-weight="bold" fill="#5c5757">2</text>
    
    <!-- Order arrows -->
    <path d="M -20,95 L -70,95" fill="none" stroke="white" stroke-width="2" />
    <polygon points="-70,95 -65,90 -65,100" fill="white" />
    
    <path d="M -140,95 L -100,30" fill="none" stroke="white" stroke-width="2" />
    <polygon points="-100,30 -95,35 -105,35" fill="white" />
    
    <path d="M -60,30 L -20,90" fill="none" stroke="white" stroke-width="2" />
    <polygon points="-20,90 -25,85 -15,85" fill="white" />
    
    <text x="-80" y="145" font-family="Arial, sans-serif" font-size="18" text-anchor="middle" font-weight="bold" fill="#5c5757">BACK FACE (RED)</text>
    <text x="-80" y="170" font-family="Arial, sans-serif" font-size="16" text-anchor="middle" fill="#5c5757">Clockwise Order (1→3→2)</text>
    <text x="-80" y="190" font-family="Arial, sans-serif" font-size="16" text-anchor="middle" fill="#5c5757">Culled when back-face culling is enabled</text>
  </g>
  
  <!-- Code Example -->
  <rect x="40" y="830" width="720" height="160" rx="15" ry="15" fill="#f0f0f0" opacity="0.9" />
  
  <g transform="translate(400, 870)">
    <text x="0" y="0" font-family="Arial, sans-serif" font-size="16" text-anchor="middle" fill="#333">
    The same triangle has different winding when viewed from front vs. back.
  </text>
  <text x="0" y="20" font-family="Arial, sans-serif" font-size="16" text-anchor="middle" fill="#333">
    Vertex order 1→2→3 appears counter-clockwise from front, clockwise from back.
  </text>

    <text x="0" y="50" font-family="Arial, sans-serif" font-size="16" text-anchor="middle" font-weight="bold" fill="#333">Enable with just two lines of code:</text>
    
    <rect x="-300" y="70" width="600" height="30" rx="5" ry="5" fill="#262626" />
    <text x="0" y="90" font-family="monospace" font-size="16" text-anchor="middle" fill="#13c2c2">gl.enable(gl.CULL_FACE);  gl.cullFace(gl.BACK);</text>
  </g>
</svg>