<svg xmlns="http://www.w3.org/2000/svg" viewBox="0 0 800 850">
  <!-- Background -->
  <rect width="800" height="850" fill="#27008b" />
  
  <!-- Title -->
  <rect x="100" y="20" width="600" height="60" rx="10" ry="10" fill="#f0f0f0" opacity="0.9" />
  <text x="400" y="60" font-family="Arial, sans-serif" font-size="28" text-anchor="middle" font-weight="bold" fill="#333">Primitive Clipping in WebGL</text>
  
  <!-- Main content container -->
  <rect x="40" y="100" width="720" height="320" rx="15" ry="15" fill="#f0f0f0" opacity="0.9" />
  
  <!-- Left panel - Before clipping -->
  <g transform="translate(50, 110)">
    <rect x="0" y="0" width="340" height="300" rx="10" ry="10" fill="white" stroke="#ddd" stroke-width="1" />
    <text x="170" y="30" font-family="Arial, sans-serif" font-size="20" text-anchor="middle" font-weight="bold" fill="#333">Before Clipping</text>
    
    <!-- Clip space boundary -->
    <rect x="70" y="70" width="200" height="180" rx="5" ry="5" fill="none" stroke="#722ed1" stroke-width="3" />
    
    <!-- Triangle that extends beyond clip space -->
    <polygon points="120,220 270,160 200,40" fill="#fa8c16" stroke="#333" stroke-width="2" />
    <text x="200" y="160" font-family="Arial, sans-serif" font-size="16" text-anchor="middle" fill="#333">Original Triangle</text>
    
    <!-- Vertices -->
    <circle cx="120" cy="220" r="6" fill="#f5222d" stroke="#333" stroke-width="1.5" />
    <text x="110" y="240" font-family="Arial, sans-serif" font-size="12" fill="#333">Vertex A</text>
    
    <circle cx="270" cy="160" r="6" fill="#f5222d" stroke="#333" stroke-width="1.5" />
    <text x="200" y="180" font-family="Arial, sans-serif" font-size="12" fill="#333">Vertex B (on boundary)</text>
    
    <circle cx="200" cy="40" r="6" fill="#f5222d" stroke="#333" stroke-width="1.5" />
    
    <!-- Mathematically correct intersection points -->
    <circle cx="217.5" cy="70" r="6" fill="#1890ff" stroke="#333" stroke-width="1.5" />
    <text x="230" y="80" font-family="Arial, sans-serif" font-size="12" fill="#1890ff">Intersection 1</text>
    
    <circle cx="186.7" cy="70" r="6" fill="#1890ff" stroke="#333" stroke-width="1.5" />
    <text x="170" y="60" font-family="Arial, sans-serif" font-size="12" fill="#1890ff">Intersection 2</text>
    
    <text x="170" y="280" font-family="Arial, sans-serif" font-size="14" text-anchor="middle" fill="#333">Clip Space Boundary</text>
  </g>
  
  <!-- Right panel - After clipping -->
  <g transform="translate(410, 110)">
    <rect x="0" y="0" width="340" height="300" rx="10" ry="10" fill="white" stroke="#ddd" stroke-width="1" />
    <text x="170" y="30" font-family="Arial, sans-serif" font-size="20" text-anchor="middle" font-weight="bold" fill="#333">After GPU Clipping</text>
    
    <!-- Clip space boundary -->
    <rect x="70" y="70" width="200" height="180" rx="5" ry="5" fill="none" stroke="#722ed1" stroke-width="3" />
    
    <!-- Original triangle (faded) -->
    <polygon points="120,220 270,160 200,40" fill="#fa8c16" fill-opacity="0.1" stroke="#fa8c16" stroke-width="1" stroke-dasharray="5,3" />
    
    <!-- Clipped polygon - mathematically accurate -->
    <polygon points="120,220 270,160 217.5,70 186.7,70" fill="#52c41a" stroke="#333" stroke-width="2" />
    <text x="190" y="140" font-family="Arial, sans-serif" font-size="16" text-anchor="middle" fill="#333">Clipped Polygon</text>
    
    <!-- Original vertices that are preserved -->
    <circle cx="120" cy="220" r="6" fill="#f5222d" stroke="#333" stroke-width="1.5" />
    <text x="110" y="240" font-family="Arial, sans-serif" font-size="12" fill="#333">Vertex A</text>
    
    <circle cx="270" cy="160" r="6" fill="#f5222d" stroke="#333" stroke-width="1.5" />
    <text x="200" y="180" font-family="Arial, sans-serif" font-size="12" fill="#333">Vertex B (preserved)</text>
    
    <!-- New vertices at intersection points -->
    <circle cx="217.5" cy="70" r="6" fill="#1890ff" stroke="#333" stroke-width="1.5" />
    <text x="230" y="80" font-family="Arial, sans-serif" font-size="12" fill="#1890ff">New Vertex 1</text>
    
    <circle cx="186.7" cy="70" r="6" fill="#1890ff" stroke="#333" stroke-width="1.5" />
    <text x="170" y="60" font-family="Arial, sans-serif" font-size="12" fill="#1890ff">New Vertex 2</text>
    
    <text x="170" y="280" font-family="Arial, sans-serif" font-size="14" text-anchor="middle" fill="#333">Vertices on the boundary are preserved</text>
  </g>
  
  <!-- Pipeline explanation -->
  <rect x="40" y="440" width="720" height="300" rx="15" ry="15" fill="#f0f0f0" opacity="0.9" />
  
  <!-- Process steps explanation -->
  <g transform="translate(400, 460)">
    <text x="0" y="20" font-family="Arial, sans-serif" font-size="22" text-anchor="middle" font-weight="bold" fill="#333">How Primitive Clipping Works:</text>
    
    <g transform="translate(-300, 40)">
      <rect x="0" y="0" width="600" height="200" rx="10" ry="10" fill="white" stroke="#ddd" stroke-width="1" />
      
      <text x="20" y="30" font-family="Arial, sans-serif" font-size="16" fill="#333">1. For each triangle edge that intersects the clip space boundary:</text>
      <text x="40" y="55" font-family="Arial, sans-serif" font-size="14" fill="#333">• Calculate the exact intersection point using linear interpolation</text>
      <text x="40" y="80" font-family="Arial, sans-serif" font-size="14" fill="#333">• Create a new vertex at this precise intersection point</text>
      
      <text x="20" y="110" font-family="Arial, sans-serif" font-size="16" fill="#333">2. Form a new polygon using:</text>
      <text x="40" y="135" font-family="Arial, sans-serif" font-size="14" fill="#333">• Original vertices that were inside the boundary or on the boundary</text>
      <text x="40" y="160" font-family="Arial, sans-serif" font-size="14" fill="#333">• New vertices created at the boundary intersection points</text>
    </g>
  </g>
  
  <!-- Bottom note -->

  <!-- <g transform="translate(400, 750)"> -->
  <g transform="translate(40, 760)">
  <rect x="0" y="0" width="720" height="75" rx="15" ry="15" fill="#f0f0f0" opacity="1" />
    <text x="360" y="40" font-family="Arial, sans-serif" font-size="20" text-anchor="middle" fill="black">
      Primitive clipping is a precise mathematical operation performed on the GPU
    </text>
  </g>
</svg>