<svg xmlns="http://www.w3.org/2000/svg" viewBox="0 0 650 600">
  <!-- Background -->
  <rect width="650" height="600" fill="#27008b" rx="10" ry="10"/>
  
  <!-- Title -->
  <text x="330" y="50" font-family="Arial, sans-serif" font-size="24" font-weight="bold" text-anchor="middle" fill="#f0f0f0">WebGL Matrix Transformation Pipeline</text>
  
  <!-- Code Box -->
  <g transform="translate(50, 100)">
    <rect x="0" y="-25" width="550" height="50" rx="10" ry="10" fill="#f0f0f0" stroke="#333" stroke-width="2"/>
    <text x="275" y="7" font-family="monospace" font-size="16" font-weight="bold" text-anchor="middle" fill="#333">
      projMatrix * viewMatrix * modelMatrix * vec4(pos, 1.0)
    </text>
  </g>
  
  <!-- Reading Direction Indicator - REVERSED -->
  <g transform="translate(300, 140)">
    <line x1="300" y1="0" x2="-250" y2="0" stroke="#f0f0f0" stroke-width="2"/>
    <polygon points="-250,0 -240,-5 -240,5" fill="#f0f0f0"/>
    <text x="20" y="20" font-family="Arial, sans-serif" font-size="16" font-weight="bold" text-anchor="middle" fill="#f0f0f0">
      READ RIGHT TO LEFT
    </text>
  </g>
  
  <!-- Process Steps - Moved Higher -->
  <g transform="translate(300, 210)">
    <text x="20" y="0" font-family="Arial, sans-serif" font-size="18" font-weight="bold" text-anchor="middle" fill="#f0f0f0">Transformation Process:</text>
  </g>
  
  <g transform="translate(300, 250)">
    <g transform="translate(-200, -10)">
      <circle cx="0" cy="0" r="20" fill="#1890ff"/>
      <text x="0" y="5" font-family="Arial, sans-serif" font-size="16" font-weight="bold" text-anchor="middle" fill="white">1</text>
      <text x="40" y="5" font-family="Arial, sans-serif" font-size="14" text-anchor="start" fill="#f0f0f0">Start with vertex position</text>
    </g>
    
    <g transform="translate(-200, 20)">
      <circle cx="0" cy="0" r="20" fill="#52c41a"/>
      <text x="0" y="5" font-family="Arial, sans-serif" font-size="16" font-weight="bold" text-anchor="middle" fill="white">2</text>
      <text x="40" y="5" font-family="Arial, sans-serif" font-size="14" text-anchor="start" fill="#f0f0f0">Place in world (model matrix)</text>
    </g>
    
    <g transform="translate(-200, 50)">
      <circle cx="0" cy="0" r="20" fill="#fa8c16"/>
      <text x="0" y="5" font-family="Arial, sans-serif" font-size="16" font-weight="bold" text-anchor="middle" fill="white">3</text>
      <text x="40" y="5" font-family="Arial, sans-serif" font-size="14" text-anchor="start" fill="#f0f0f0">View from camera (view matrix)</text>
    </g>
    
    <g transform="translate(-200, 80)">
      <circle cx="0" cy="0" r="20" fill="#722ed1"/>
      <text x="0" y="5" font-family="Arial, sans-serif" font-size="16" font-weight="bold" text-anchor="middle" fill="white">4</text>
      <text x="40" y="5" font-family="Arial, sans-serif" font-size="14" text-anchor="start" fill="#f0f0f0">Project to screen (projection matrix)</text>
    </g>
  </g>
  
  <!-- Matrix Pipeline Diagram - Right to Left -->
  <g transform="translate(50, 420)">
    <!-- Projection Matrix -->
    <g transform="translate(450, 0)">
      <rect x="0" y="-60" width="100" height="120" rx="10" ry="10" fill="#f9f0ff" stroke="#722ed1" stroke-width="3"/>
      
      <text x="50" y="-30" font-family="Arial, sans-serif" font-size="16" font-weight="bold" text-anchor="middle" fill="#722ed1">Projection</text>
      <text x="50" y="-10" font-family="Arial, sans-serif" font-size="16" font-weight="bold" text-anchor="middle" fill="#722ed1">Matrix</text>
      
      <g transform="translate(50, 30)">
        <rect x="-20" y="-20" width="40" height="20" fill="none" stroke="#722ed1" stroke-width="1.5"/>
      </g>
      
      <text x="50" y="50" font-family="Arial, sans-serif" font-size="12" text-anchor="middle" fill="#666">Clip Space</text>
    </g>
    
    <!-- Arrow 3 -->
    <g transform="translate(400, 0)">
      <line x1="40" y1="0" x2="10" y2="0" stroke="#333" stroke-width="3"/>
      <polygon points="10,0 20,-5 20,5" fill="#333"/>
    </g>
    
    <!-- View Matrix -->
    <g transform="translate(300, 0)">
      <rect x="0" y="-60" width="100" height="120" rx="10" ry="10" fill="#fff2e8" stroke="#fa8c16" stroke-width="3"/>
      
      <text x="50" y="-30" font-family="Arial, sans-serif" font-size="16" font-weight="bold" text-anchor="middle" fill="#fa8c16">View</text>
      <text x="50" y="-10" font-family="Arial, sans-serif" font-size="16" font-weight="bold" text-anchor="middle" fill="#fa8c16">Matrix</text>
      
      <g transform="translate(50, 30)">
        <rect x="-20" y="-20" width="40" height="20" fill="none" stroke="#fa8c16" stroke-width="1.5"/>
      </g>
      
      <text x="50" y="50" font-family="Arial, sans-serif" font-size="12" text-anchor="middle" fill="#666">View Space</text>
    </g>
    
    <!-- Arrow 2 -->
    <g transform="translate(250, 0)">
      <line x1="40" y1="0" x2="10" y2="0" stroke="#333" stroke-width="3"/>
      <polygon points="10,0 20,-5 20,5" fill="#333"/>
    </g>
    
    <!-- Model Matrix -->
    <g transform="translate(150, 0)">
      <rect x="0" y="-60" width="100" height="120" rx="10" ry="10" fill="#f6ffed" stroke="#52c41a" stroke-width="3"/>
      
      <text x="50" y="-30" font-family="Arial, sans-serif" font-size="16" font-weight="bold" text-anchor="middle" fill="#52c41a">Model</text>
      <text x="50" y="-10" font-family="Arial, sans-serif" font-size="16" font-weight="bold" text-anchor="middle" fill="#52c41a">Matrix</text>
      
      <g transform="translate(50, 30)">
        <rect x="-20" y="-20" width="40" height="20" fill="none" stroke="#52c41a" stroke-width="1.5"/>
      </g>
      
      <text x="50" y="50" font-family="Arial, sans-serif" font-size="12" text-anchor="middle" fill="#666">World Space</text>
    </g>
    
    <!-- Arrow 1 -->
    <g transform="translate(100, 0)">
      <line x1="40" y1="0" x2="10" y2="0" stroke="#333" stroke-width="3"/>
      <polygon points="10,0 20,-5 20,5" fill="#333"/>
    </g>
    
    <!-- Position Start -->
    <g transform="translate(0, 0)">
      <rect x="0" y="-60" width="100" height="120" rx="10" ry="10" fill="#e6f7ff" stroke="#1890ff" stroke-width="3"/>
      
      <text x="50" y="-30" font-family="Arial, sans-serif" font-size="16" font-weight="bold" text-anchor="middle" fill="#1890ff">Position</text>
      <text x="50" y="0" font-family="monospace" font-size="14" text-anchor="middle" fill="#333">vec4</text>
      <text x="50" y="20" font-family="monospace" font-size="14" text-anchor="middle" fill="#333">(pos, 1.0)</text>
      <text x="50" y="50" font-family="Arial, sans-serif" font-size="12" text-anchor="middle" fill="#666">Model Space</text>
    </g>
  </g>
  
  <!-- Bottom Summary -->
  <g transform="translate(300, 540)">
    <rect x="-250" y="-30" width="550" height="60" rx="10" ry="10" fill="#f0f0f0" stroke="#d9d9d9" stroke-width="2"/>
    <text x="20" y="5" font-family="Arial, sans-serif" font-size="18" font-weight="bold" text-anchor="middle" fill="#333">
      Order matters in matrix multiplication!
    </text>
  </g>
</svg>