<svg xmlns="http://www.w3.org/2000/svg" viewBox="0 0 800 600">
  <!-- Background -->
  <rect width="800" height="600" fill="#27008b"/>
  
  <!-- Title Panel -->
  <rect x="100" y="20" width="600" height="50" rx="10" ry="10" fill="#f0f0f0" opacity="0.9"/>
  <text x="400" y="55" font-family="Arial, sans-serif" font-size="24" text-anchor="middle" font-weight="bold" fill="#333">
    Multiple Render Targets (MRT) in WebGL 2
  </text>
  
  <!-- Main Pipeline Panel -->
  <rect x="50" y="90" width="700" height="280" rx="10" ry="10" fill="#f0f0f0" opacity="0.9"/>
  <text x="400" y="120" font-family="Arial, sans-serif" font-size="18" text-anchor="middle" font-weight="bold" fill="#333">
    Single-Pass Rendering Pipeline
  </text>
  
  <!-- 3D Scene -->
  <g transform="translate(0, 60)">
  <rect x="80" y="140" width="100" height="70" rx="5" ry="5" fill="#bbdefb" stroke="#1565c0" stroke-width="2"/>
  <text x="130" y="165" font-family="Arial, sans-serif" font-size="14" text-anchor="middle" fill="#333">3D Scene</text>
  <text x="130" y="185" font-family="Arial, sans-serif" font-size="12" text-anchor="middle" fill="#333">Geometry Data</text>
  
  <!-- Input label -->
   <g transform="translate(0, -20)">
  <rect x="80" y="130" width="100" height="20" rx="5" ry="5" fill="#1565c0"/>
  <text x="130" y="145" font-family="Arial, sans-serif" font-size="12" text-anchor="middle" fill="white">Input</text>
  </g>
  
  <!-- Arrow 1 -->
  <line x1="180" y1="175" x2="210" y2="175" stroke="#333" stroke-width="2"/>
  <polygon points="210,175 205,172 205,178" fill="#333"/>
  
  <!-- Fragment Shader -->
  <rect x="210" y="140" width="120" height="70" rx="5" ry="5" fill="#c8e6c9" stroke="#388e3c" stroke-width="2"/>
  <text x="270" y="165" font-family="Arial, sans-serif" font-size="14" text-anchor="middle" fill="#333">Fragment Shader</text>
  <text x="270" y="185" font-family="Arial, sans-serif" font-size="12" text-anchor="middle" fill="#333">Single Pass</text>
  
  <!-- MRT label -->
   <g transform="translate(0, -20)">
  <rect x="210" y="130" width="120" height="20" rx="5" ry="5" fill="#66bb6a"/>
  <text x="270" y="145" font-family="Arial, sans-serif" font-size="12" text-anchor="middle" fill="white">MRT-Enabled</text>
  </g>
  
  <!-- Arrows to buffers -->
  <line x1="330" y1="155" x2="370" y2="135" stroke="#333" stroke-width="2"/>
  <polygon points="370,135 365,138 367,143" fill="#333"/>
  
  <line x1="330" y1="175" x2="370" y2="175" stroke="#333" stroke-width="2"/>
  <polygon points="370,175 365,172 365,178" fill="#333"/>
  
  <line x1="330" y1="195" x2="370" y2="215" stroke="#333" stroke-width="2"/>
  <polygon points="370,215 365,212 367,207" fill="#333"/>
  
  <!-- Buffers -->
  <rect x="370" y="110" width="120" height="50" rx="5" ry="5" fill="#ffccbc" stroke="#e64a19" stroke-width="2"/>
  <text x="430" y="130" font-family="Arial, sans-serif" font-size="14" text-anchor="middle" fill="#333">Color Buffer</text>
  <text x="430" y="145" font-family="Arial, sans-serif" font-size="12" text-anchor="middle" fill="#333">RGB/Albedo</text>
  
  <rect x="370" y="170" width="120" height="50" rx="5" ry="5" fill="#fff9c4" stroke="#fbc02d" stroke-width="2"/>
  <text x="430" y="190" font-family="Arial, sans-serif" font-size="14" text-anchor="middle" fill="#333">Normal Buffer</text>
  <text x="430" y="205" font-family="Arial, sans-serif" font-size="12" text-anchor="middle" fill="#333">Surface Normals</text>
  
  <rect x="370" y="230" width="120" height="50" rx="5" ry="5" fill="#e3f2fd" stroke="#2196f3" stroke-width="2"/>
  <text x="430" y="250" font-family="Arial, sans-serif" font-size="14" text-anchor="middle" fill="#333">Depth Buffer</text>
  <text x="430" y="265" font-family="Arial, sans-serif" font-size="12" text-anchor="middle" fill="#333">Position Data</text>
  
  <!-- G-Buffer label -->
  <g transform="translate(0, -20)">
  <rect x="360" y="100" width="140" height="20" rx="5" ry="5" fill="#ff7043"/>
  <text x="430" y="115" font-family="Arial, sans-serif" font-size="12" text-anchor="middle" fill="white">G-Buffer Targets</text>
  </g>
  
  <!-- Arrows to lighting -->
  <line x1="490" y1="135" x2="530" y2="175" stroke="#333" stroke-width="2"/>
  <polygon points="530,175 525,171 523,177" fill="#333"/>
  
  <line x1="490" y1="195" x2="530" y2="175" stroke="#333" stroke-width="2"/>
  <polygon points="530,175 525,179 523,173" fill="#333"/>
  
  <line x1="490" y1="255" x2="530" y2="175" stroke="#333" stroke-width="2"/>
  <polygon points="530,175 527,181 523,178" fill="#333"/>
  
  <!-- Deferred Lighting -->
  <rect x="530" y="140" width="120" height="70" rx="5" ry="5" fill="#e8f5e9" stroke="#2196f3" stroke-width="2"/>
  <text x="590" y="165" font-family="Arial, sans-serif" font-size="14" text-anchor="middle" fill="#333">Lighting Pass</text>
  <text x="590" y="185" font-family="Arial, sans-serif" font-size="12" text-anchor="middle" fill="#333">Combines All Data</text>
  
  <!-- Final Output label -->
   <g transform="translate(0, -20)">
  <rect x="530" y="130" width="120" height="20" rx="5" ry="5" fill="#2196f3"/>
  <text x="590" y="145" font-family="Arial, sans-serif" font-size="12" text-anchor="middle" fill="white">Final Rendering</text>
  </g>
  </g>
  
  <!-- Benefits Panel -->
  <g transform="translate(0, 100)">
  <rect x="50" y="290" width="700" height="180" rx="10" ry="10" fill="#f0f0f0" opacity="0.9"/>
  <text x="400" y="320" font-family="Arial, sans-serif" font-size="18" text-anchor="middle" font-weight="bold" fill="#333">
    Benefits of Multiple Render Targets
  </text>
  
  <!-- Performance Benefits -->
  <rect x="80" y="340" width="200" height="100" rx="5" ry="5" fill="#e3f2fd" stroke="#2196f3" stroke-width="2"/>
  <rect x="80" y="340" width="200" height="25" rx="5" ry="5" fill="#2196f3"/>
  <text x="180" y="358" font-family="Arial, sans-serif" font-size="14" font-weight="bold" text-anchor="middle" fill="white">
    Performance Benefits
  </text>
  <text x="100" y="380" font-family="Arial, sans-serif" font-size="12" fill="#333">• Single geometry pass</text>
  <text x="100" y="400" font-family="Arial, sans-serif" font-size="12" fill="#333">• Reduced draw calls</text>
  <text x="100" y="420" font-family="Arial, sans-serif" font-size="12" fill="#333">• Efficient with many lights</text>
  
  <!-- WebGL 2 Implementation -->
  <rect x="300" y="340" width="200" height="100" rx="5" ry="5" fill="#ffebee" stroke="#ff5252" stroke-width="2"/>
  <rect x="300" y="340" width="200" height="25" rx="5" ry="5" fill="#ff5252"/>
  <text x="400" y="358" font-family="Arial, sans-serif" font-size="14" font-weight="bold" text-anchor="middle" fill="white">
    WebGL 2 Implementation
  </text>
  <text x="320" y="380" font-family="Arial, sans-serif" font-size="12" fill="#333">• Use gl.drawBuffers</text>
  <text x="320" y="400" font-family="Arial, sans-serif" font-size="12" fill="#333">• Multiple color attachments</text>
  <text x="320" y="420" font-family="Arial, sans-serif" font-size="12" fill="#333">• gl_FragData[] outputs</text>
  
  <!-- Use Cases -->
  <rect x="520" y="340" width="200" height="100" rx="5" ry="5" fill="#e8f5e9" stroke="#66bb6a" stroke-width="2"/>
  <rect x="520" y="340" width="200" height="25" rx="5" ry="5" fill="#66bb6a"/>
  <text x="620" y="358" font-family="Arial, sans-serif" font-size="14" font-weight="bold" text-anchor="middle" fill="white">
    Common Use Cases
  </text>
  <text x="540" y="380" font-family="Arial, sans-serif" font-size="12" fill="#333">• Deferred rendering</text>
  <text x="540" y="400" font-family="Arial, sans-serif" font-size="12" fill="#333">• Post-processing effects</text>
  <text x="540" y="420" font-family="Arial, sans-serif" font-size="12" fill="#333">• Screen-space techniques</text>
  </g>
</svg>