<svg xmlns="http://www.w3.org/2000/svg" width="800" height="790" viewBox="0 0 800 790">
  <!-- Background -->
  <rect width="800" height="790" fill="#27008b" />
  
  <!-- Title -->
  <rect x="100" y="20" width="600" height="60" rx="10" ry="10" fill="#f0f0f0" opacity="0.9" />
  <text x="400" y="60" font-family="Arial, sans-serif" font-size="24" text-anchor="middle" font-weight="bold" fill="#333">
    Rasterization: Converting 3D Primitives to Pixels
  </text>

  <!-- 3D Triangle to Rasterized Output Panel -->
  <g transform="translate(50, 100)">
    <rect x="0" y="0" width="700" height="240" rx="10" ry="10" fill="#f0f0f0" opacity="0.9" />
    <text x="350" y="30" font-family="Arial, sans-serif" font-size="18" text-anchor="middle" font-weight="bold" fill="#333">
      From 3D Triangle to Rasterized Pixels
    </text>
    
    <!-- 3D Space -->
    <g transform="translate(50, 70)">
      <!-- 3D axes -->
      <line x1="0" y1="100" x2="100" y2="100" stroke="#333" stroke-width="1" stroke-dasharray="5,3" />
      <line x1="0" y1="100" x2="0" y2="0" stroke="#333" stroke-width="1" stroke-dasharray="5,3" />
      <line x1="0" y1="100" x2="-30" y2="130" stroke="#333" stroke-width="1" stroke-dasharray="5,3" />
      
      <text x="105" y="100" font-family="Arial, sans-serif" font-size="12" fill="#333">X</text>
      <text x="0" y="-5" font-family="Arial, sans-serif" font-size="12" fill="#333">Y</text>
      <text x="-35" y="140" font-family="Arial, sans-serif" font-size="12" fill="#333">Z</text>
      
      <!-- 3D Triangle with vertex colors -->
      <polygon points="20,30 90,90 40,110" fill="url(#triangle3DGradient)" stroke="#333" stroke-width="1.5" />
      
      <!-- Vertices -->
      <circle cx="20" cy="30" r="5" fill="#f44336" stroke="#333" stroke-width="1" />
      <circle cx="90" cy="90" r="5" fill="#4caf50" stroke="#333" stroke-width="1" />
      <circle cx="40" cy="110" r="5" fill="#2196f3" stroke="#333" stroke-width="1" />
      
      <text x="15" y="25" font-family="Arial, sans-serif" font-size="10" fill="#333">V1 (Red)</text>
      <text x="95" y="85" font-family="Arial, sans-serif" font-size="10" fill="#333">V2 (Green)</text>
      <text x="45" y="115" font-family="Arial, sans-serif" font-size="10" fill="#333">V3 (Blue)</text>
      
      <text x="20" y="140" font-family="Arial, sans-serif" font-size="14" text-anchor="middle" fill="#333">
        3D Triangle
      </text>

      <text x="60" y="157" font-family="Arial, sans-serif" font-size="14" text-anchor="middle" fill="#333">
        after Vertex Processing
      </text>
    </g>
    
    <!-- Arrow pointing to rasterization -->
    <g transform="translate(180, 100)">
      <path d="M 0,0 L 50,0" fill="none" stroke="#333" stroke-width="2" />
      <polygon points="50,0 42,-5 42,5" fill="#333" />
      <text x="25" y="-10" font-family="Arial, sans-serif" font-size="12" text-anchor="middle" fill="#333">Rasterization</text>
    </g>
    
    <!-- Rasterized Pixel Grid -->
    <g transform="translate(250, 65)">
      <!-- Grid background -->
      <rect x="0" y="0" width="130" height="130" fill="#fff" stroke="#ddd" stroke-width="1" />
      
      <!-- Grid lines -->
      <g stroke="#ddd" stroke-width="0.5">
        <line x1="0" y1="13" x2="130" y2="13" />
        <line x1="0" y1="26" x2="130" y2="26" />
        <line x1="0" y1="39" x2="130" y2="39" />
        <line x1="0" y1="52" x2="130" y2="52" />
        <line x1="0" y1="65" x2="130" y2="65" />
        <line x1="0" y1="78" x2="130" y2="78" />
        <line x1="0" y1="91" x2="130" y2="91" />
        <line x1="0" y1="104" x2="130" y2="104" />
        <line x1="0" y1="117" x2="130" y2="117" />
        
        <line x1="13" y1="0" x2="13" y2="130" />
        <line x1="26" y1="0" x2="26" y2="130" />
        <line x1="39" y1="0" x2="39" y2="130" />
        <line x1="52" y1="0" x2="52" y2="130" />
        <line x1="65" y1="0" x2="65" y2="130" />
        <line x1="78" y1="0" x2="78" y2="130" />
        <line x1="91" y1="0" x2="91" y2="130" />
        <line x1="104" y1="0" x2="104" y2="130" />
        <line x1="117" y1="0" x2="117" y2="130" />
      </g>
      
      <!-- Triangle outline on the grid -->
      <path d="M 26,39 L 104,91 L 52,104 Z" fill="none" stroke="#333" stroke-width="1.5" />
      
      <!-- Filled pixels representing the rasterized triangle with interpolated colors -->
      <!-- Each cell is 13x13 -->
      <rect x="26" y="39" width="13" height="13" fill="#f44336" opacity="0.9" />
      <rect x="39" y="39" width="13" height="13" fill="#e06346" opacity="0.9" />
      <rect x="52" y="39" width="13" height="13" fill="#cb8356" opacity="0.9" />
      <rect x="65" y="39" width="13" height="13" fill="#b6a367" opacity="0.9" />
      <rect x="78" y="39" width="13" height="13" fill="#a1c377" opacity="0.9" />
      <rect x="91" y="39" width="13" height="13" fill="#8ce388" opacity="0.9" />
      
      <rect x="26" y="52" width="13" height="13" fill="#e05c57" opacity="0.9" />
      <rect x="39" y="52" width="13" height="13" fill="#d47367" opacity="0.9" />
      <rect x="52" y="52" width="13" height="13" fill="#c98b77" opacity="0.9" />
      <rect x="65" y="52" width="13" height="13" fill="#bda287" opacity="0.9" />
      <rect x="78" y="52" width="13" height="13" fill="#b2ba97" opacity="0.9" />
      <rect x="91" y="52" width="13" height="13" fill="#a6d1a8" opacity="0.9" />
      <rect x="104" y="52" width="13" height="13" fill="#9be9b8" opacity="0.9" />
      
      <rect x="26" y="65" width="13" height="13" fill="#cc7378" opacity="0.9" />
      <rect x="39" y="65" width="13" height="13" fill="#c38388" opacity="0.9" />
      <rect x="52" y="65" width="13" height="13" fill="#bb9498" opacity="0.9" />
      <rect x="65" y="65" width="13" height="13" fill="#b2a5a8" opacity="0.9" />
      <rect x="78" y="65" width="13" height="13" fill="#aab6b8" opacity="0.9" />
      <rect x="91" y="65" width="13" height="13" fill="#a1c7c8" opacity="0.9" />
      <rect x="104" y="65" width="13" height="13" fill="#99d8d8" opacity="0.9" />
      
      <rect x="26" y="78" width="13" height="13" fill="#b88b99" opacity="0.9" />
      <rect x="39" y="78" width="13" height="13" fill="#b294a9" opacity="0.9" />
      <rect x="52" y="78" width="13" height="13" fill="#ac9db9" opacity="0.9" />
      <rect x="65" y="78" width="13" height="13" fill="#a6a7c9" opacity="0.9" />
      <rect x="78" y="78" width="13" height="13" fill="#a0b0d9" opacity="0.9" />
      <rect x="91" y="78" width="13" height="13" fill="#9abae9" opacity="0.9" />
      <rect x="104" y="78" width="13" height="13" fill="#94c3f9" opacity="0.9" />
      
      <rect x="26" y="91" width="13" height="13" fill="#a4a3ba" opacity="0.9" />
      <rect x="39" y="91" width="13" height="13" fill="#a0a5ca" opacity="0.9" />
      <rect x="52" y="91" width="13" height="13" fill="#9ca7da" opacity="0.9" />
      <rect x="65" y="91" width="13" height="13" fill="#99aaea" opacity="0.9" />
      <rect x="78" y="91" width="13" height="13" fill="#95acfa" opacity="0.9" />
      <rect x="91" y="91" width="13" height="13" fill="#71abf9" opacity="0.9" />
      <rect x="104" y="91" width="13" height="13" fill="#4caf50" opacity="0.9" />
      
      <rect x="26" y="104" width="13" height="13" fill="#90badb" opacity="0.9" />
      <rect x="39" y="104" width="13" height="13" fill="#7ab4e6" opacity="0.9" />
      <rect x="52" y="104" width="13" height="13" fill="#2196f3" opacity="0.9" />
      
      <!-- Vertex labels on the grid -->
      <text x="26" y="37" font-family="Arial, sans-serif" font-size="10" fill="#f44336">V1</text>
      <text x="106" y="89" font-family="Arial, sans-serif" font-size="10" fill="#4caf50">V2</text>
      <text x="50" y="114" font-family="Arial, sans-serif" font-size="10" fill="#2196f3">V3</text>
      
      <text x="65" y="150" font-family="Arial, sans-serif" font-size="14" text-anchor="middle" fill="#333">
        Rasterized Triangle
      </text>
      <text x="65" y="165" font-family="Arial, sans-serif" font-size="14" text-anchor="middle" fill="#333">
        with Interpolated Colors
      </text>
    </g>
    
    <!-- Magnified Pixel View -->
    <g transform="translate(450, 65)">
      <!-- Background -->
      <rect x="0" y="0" width="200" height="130" fill="#f5f5f5" stroke="#ddd" stroke-width="1" />
      
      <!-- Magnified pixel -->
      <rect x="10" y="10" width="180" height="110" fill="#bda287" stroke="#333" stroke-width="2" />
      
      <!-- Interpolation explanation -->
      <text x="100" y="35" font-family="Arial, sans-serif" font-size="12" text-anchor="middle" fill="#333">
        Individual Pixel
      </text>
      <text x="100" y="55" font-family="Arial, sans-serif" font-size="12" text-anchor="middle" fill="#333">
        Color determined by
      </text>
      <text x="100" y="75" font-family="Arial, sans-serif" font-size="12" text-anchor="middle" fill="#333">
        barycentric interpolation
      </text>
      <text x="100" y="95" font-family="Arial, sans-serif" font-size="12" text-anchor="middle" fill="#333">
        from all three vertices
      </text>
      
      <text x="100" y="150" font-family="Arial, sans-serif" font-size="14" text-anchor="middle" fill="#333">
        Interpolated Pixel Color
      </text>
    </g>
  </g>
  
  <!-- Attribute Interpolation Panel -->
  <g transform="translate(50, 350)">
    <rect x="0" y="0" width="700" height="210" rx="10" ry="10" fill="#f0f0f0" opacity="0.9" />
    <text x="350" y="30" font-family="Arial, sans-serif" font-size="18" text-anchor="middle" font-weight="bold" fill="#333">
      Attribute Interpolation Across Triangle Surface
    </text>
    
    <!-- Barycentric Coordinates Visualization -->
    <g transform="translate(100, 60)">
      <!-- Triangle -->
      <polygon points="0,80 160,80 80,0" fill="url(#barycentricGradient)" stroke="#333" stroke-width="1.5" />
      
      <!-- Vertices -->
      <circle cx="0" cy="80" r="5" fill="#f44336" stroke="#333" stroke-width="1" />
      <circle cx="160" cy="80" r="5" fill="#4caf50" stroke="#333" stroke-width="1" />
      <circle cx="80" cy="0" r="5" fill="#2196f3" stroke="#333" stroke-width="1" />
      
      <text x="-20" y="80" font-family="Arial, sans-serif" font-size="12" fill="#333">V1</text>
      <text x="165" y="80" font-family="Arial, sans-serif" font-size="12" fill="#333">V2</text>
      <text x="80" y="-10" font-family="Arial, sans-serif" font-size="12" fill="#333">V3</text>
      
      <!-- Barycentric coordinate lines -->
      <g stroke="#333" stroke-width="0.7" stroke-dasharray="2,2">
        <line x1="80" y1="40" x2="40" y2="80" />
        <line x1="80" y1="40" x2="120" y2="80" />
        <line x1="53.3" y1="53.3" x2="106.7" y2="53.3" />
      </g>
      
      <!-- Barycentric point -->
      <circle cx="80" cy="40" r="4" fill="#9c27b0" stroke="#333" stroke-width="1" />
      <text x="90" y="40" font-family="Arial, sans-serif" font-size="10" fill="#9c27b0">P</text>
      
      <text x="80" y="105" font-family="Arial, sans-serif" font-size="12" text-anchor="middle" fill="#333">
        Point P's attributes are a weighted mix of all three vertices
      </text>
      <text x="80" y="125" font-family="Arial, sans-serif" font-size="12" text-anchor="middle" fill="#333">
        based on its position within the triangle
      </text>
    </g>
    
    <!-- Formula explanation -->
    <g transform="translate(350, 60)">
      <text x="0" y="15" font-family="Arial, sans-serif" font-size="14" fill="#333">For any attribute (color, UV, etc.):</text>
      
      <text x="0" y="45" font-family="Arial, sans-serif" font-size="14" fill="#333">
        A_point = w₁A₁ + w₂A₂ + w₃A₃
      </text>
      
      <text x="0" y="75" font-family="Arial, sans-serif" font-size="14" fill="#333">Where:</text>
      <text x="30" y="95" font-family="Arial, sans-serif" font-size="14" fill="#333">• A₁, A₂, A₃ are attribute values at each vertex</text>
      <text x="30" y="115" font-family="Arial, sans-serif" font-size="14" fill="#333">• w₁, w₂, w₃ are barycentric weights</text>
      <text x="30" y="135" font-family="Arial, sans-serif" font-size="14" fill="#333">• w₁ + w₂ + w₃ = 1</text>
    </g>
  </g>
  
  <!-- Practical Applications Panel -->
  <g transform="translate(50, 570)">
    <rect x="0" y="0" width="700" height="190" rx="10" ry="10" fill="#f0f0f0" opacity="0.9" />
    <text x="350" y="30" font-family="Arial, sans-serif" font-size="18" text-anchor="middle" font-weight="bold" fill="#333">
      Interpolation in Action: Texturing and Shading
    </text>
    
    <!-- Texture Mapping Example -->
    <g transform="translate(70, 55)">
      <!-- 3D textured triangle with interpolated UVs -->
      <polygon points="0,70 140,70 70,0" fill="url(#textureGradient)" stroke="#333" stroke-width="1.5" />
      
      <!-- Texture coordinates -->
      <text x="5" y="75" font-family="Arial, sans-serif" font-size="10" fill="#333">UV(0,0)</text>
      <text x="120" y="75" font-family="Arial, sans-serif" font-size="10" fill="#333">UV(1,0)</text>
      <text x="55" y="10" font-family="Arial, sans-serif" font-size="10" fill="#333">UV(0.5,1)</text>
      
      <text x="70" y="110" font-family="Arial, sans-serif" font-size="14" text-anchor="middle" fill="#333">
        Texture Coordinate Interpolation
      </text>
    </g>
    
    <!-- Normal Interpolation Example -->
    <g transform="translate(280, 55)">
      <!-- Shaded triangle with normal interpolation -->
      <polygon points="0,70 140,70 70,0" fill="url(#normalGradient)" stroke="#333" stroke-width="1.5" />
      
      <!-- Normals -->
      <line x1="0" y1="70" x2="0" y2="40" stroke="#333" stroke-width="1" />
      <line x1="140" y1="70" x2="140" y2="40" stroke="#333" stroke-width="1" />
      <line x1="70" y1="0" x2="70" y2="-15" stroke="#333" stroke-width="1" />
      
      <polygon points="0,40 -3,45 3,45" fill="#333" />
      <polygon points="140,40 137,45 143,45" fill="#333" />
      <polygon points="70,-15 67,-10 73,-10" fill="#333" />
      
      <text x="70" y="110" font-family="Arial, sans-serif" font-size="14" text-anchor="middle" fill="#333">
        Normal Vector Interpolation
      </text>
    </g>
    
    <!-- Fragment Example -->
    <g transform="translate(500, 55)">
      <!-- Fragment shader visualization -->
      <rect x="0" y="0" width="140" height="70" fill="url(#fragmentGradient)" stroke="#333" stroke-width="1.5" />
      
      <text x="70" y="35" font-family="Arial, sans-serif" font-size="12" text-anchor="middle" fill="white">
        Fragment shader
      </text>
      <text x="70" y="50" font-family="Arial, sans-serif" font-size="12" text-anchor="middle" fill="white">
        processes each pixel
      </text>
      
      <text x="70" y="110" font-family="Arial, sans-serif" font-size="14" text-anchor="middle" fill="#333">
        Per-Pixel Processing
      </text>
    </g>
    
    <text x="350" y="148" font-family="Arial, sans-serif" font-size="14" text-anchor="middle" fill="#333" font-style="italic">
      All attributes defined at vertices are smoothly interpolated across the entire primitive
    </text>
  </g>
  
  <!-- Gradients -->
  <defs>
    <!-- 3D Triangle gradient -->
    <linearGradient id="triangle3DGradient" x1="0%" y1="0%" x2="100%" y2="100%">
      <stop offset="0%" stop-color="#f44336" />
      <stop offset="50%" stop-color="#4caf50" />
      <stop offset="100%" stop-color="#2196f3" />
    </linearGradient>
    
    <!-- Barycentric gradient -->
    <linearGradient id="barycentricGradient" x1="0%" y1="100%" x2="100%" y2="100%">
      <stop offset="0%" stop-color="#f44336" />
      <stop offset="50%" stop-color="#9c27b0" />
      <stop offset="100%" stop-color="#4caf50" />
      <stop offset="50%" stop-color="#2196f3" />
    </linearGradient>
    
    <!-- Texture gradient -->
    <pattern id="textureGradient" width="140" height="70" patternUnits="userSpaceOnUse">
      <rect width="140" height="70" fill="#fff" />
      <rect width="35" height="17.5" fill="#f44336" />
      <rect x="35" width="35" height="17.5" fill="#4caf50" />
      <rect x="70" width="35" height="17.5" fill="#f44336" />
      <rect x="105" width="35" height="17.5" fill="#4caf50" />
      
      <rect y="17.5" width="35" height="17.5" fill="#4caf50" />
      <rect x="35" y="17.5" width="35" height="17.5" fill="#f44336" />
      <rect x="70" y="17.5" width="35" height="17.5" fill="#4caf50" />
      <rect x="105" y="17.5" width="35" height="17.5" fill="#f44336" />
      
      <rect y="35" width="35" height="17.5" fill="#f44336" />
      <rect x="35" y="35" width="35" height="17.5" fill="#4caf50" />
      <rect x="70" y="35" width="35" height="17.5" fill="#f44336" />
      <rect x="105" y="35" width="35" height="17.5" fill="#4caf50" />
      
      <rect y="52.5" width="35" height="17.5" fill="#4caf50" />
      <rect x="35" y="52.5" width="35" height="17.5" fill="#f44336" />
      <rect x="70" y="52.5" width="35" height="17.5" fill="#4caf50" />
      <rect x="105" y="52.5" width="35" height="17.5" fill="#f44336" />
    </pattern>
    
    <!-- Normal lighting gradient -->
    <linearGradient id="normalGradient" x1="0%" y1="0%" x2="100%" y2="100%">
      <stop offset="0%" stop-color="#333" />
      <stop offset="50%" stop-color="#f5f5f5" />
      <stop offset="100%" stop-color="#333" />
    </linearGradient>
    
    <!-- Fragment shader gradient -->
    <linearGradient id="fragmentGradient" x1="0%" y1="0%" x2="100%" y2="100%">
      <stop offset="0%" stop-color="#673ab7" />
      <stop offset="100%" stop-color="#3f51b5" />
    </linearGradient>
  </defs>
</svg>