<svg xmlns="http://www.w3.org/2000/svg" viewBox="0 0 940 450">
  <!-- Background -->
  <rect width="940" height="450" fill="#27008b" rx="10" ry="10"/>
  
  <!-- Title -->
  <text x="500" y="70" font-family="Arial, sans-serif" font-size="24" font-weight="bold" text-anchor="middle" fill="#888">WebGL Coordinate Spaces Journey</text>
  
  <!-- Spaces Container -->
  <g transform="translate(50, 140)">
    <!-- Model Space -->
    <g transform="translate(0, 0)">
      <rect x="0" y="0" width="120" height="120" rx="5" ry="5" fill="#e6f7ff" stroke="#1890ff" stroke-width="2"/>
      <g transform="translate(60, 60)">
        <!-- Cube in model space -->
        <polygon points="-20,-20 20,-20 20,20 -20,20" fill="#1890ff" fill-opacity="0.6" stroke="#1890ff" stroke-width="1.5"/>
        <polygon points="-20,-20 -10,-30 30,-30 20,-20" fill="#1890ff" fill-opacity="0.8" stroke="#1890ff" stroke-width="1.5"/>
        <polygon points="20,-20 30,-30 30,10 20,20" fill="#1890ff" fill-opacity="0.7" stroke="#1890ff" stroke-width="1.5"/>
      </g>
      <text x="60" y="150" font-family="Arial, sans-serif" font-size="16" text-anchor="middle" fill="#888">Model Space</text>
      <text x="60" y="170" font-family="Arial, sans-serif" font-size="12" text-anchor="middle" fill="#666">(Local object coords)</text>
    </g>
    
    <!-- Arrow 1 -->
    <g transform="translate(110, 60)">
      <line x1="10" y1="0" x2="50" y2="0" stroke="#888" stroke-width="2"/>
      <polygon points="50,0 40,-5 40,5" fill="#888"/>
      <text x="30" y="-10" font-family="Arial, sans-serif" font-size="12" text-anchor="middle" fill="#888">Model Matrix</text>
    </g>
    
    <!-- World Space -->
    <g transform="translate(180, 0)">
      <rect x="0" y="0" width="120" height="120" rx="5" ry="5" fill="#f6ffed" stroke="#52c41a" stroke-width="2"/>
      <g transform="translate(60, 60)">
        <!-- World grid -->
        <line x1="-40" y1="0" x2="40" y2="0" stroke="#52c41a" stroke-width="0.5" stroke-dasharray="2,2"/>
        <line x1="0" y1="-40" x2="0" y2="40" stroke="#52c41a" stroke-width="0.5" stroke-dasharray="2,2"/>
        <!-- Cube in world space -->
        <g transform="translate(15, -5) rotate(15)">
          <polygon points="-20,-20 20,-20 20,20 -20,20" fill="#52c41a" fill-opacity="0.6" stroke="#52c41a" stroke-width="1.5"/>
          <polygon points="-20,-20 -10,-30 30,-30 20,-20" fill="#52c41a" fill-opacity="0.8" stroke="#52c41a" stroke-width="1.5"/>
          <polygon points="20,-20 30,-30 30,10 20,20" fill="#52c41a" fill-opacity="0.7" stroke="#52c41a" stroke-width="1.5"/>
        </g>
      </g>
      <text x="60" y="150" font-family="Arial, sans-serif" font-size="16" text-anchor="middle" fill="#888">World Space</text>
      <text x="60" y="170" font-family="Arial, sans-serif" font-size="12" text-anchor="middle" fill="#888">(Global scene coords)</text>
    </g>
    
    <!-- Arrow 2 -->
    <g transform="translate(290, 60)">
      <line x1="10" y1="0" x2="50" y2="0" stroke="#888" stroke-width="2"/>
      <polygon points="50,0 40,-5 40,5" fill="#888"/>
      <text x="30" y="-10" font-family="Arial, sans-serif" font-size="12" text-anchor="middle" fill="#888">View Matrix</text>
    </g>
    
    <!-- View Space -->
    <g transform="translate(360, 0)">
      <rect x="0" y="0" width="120" height="120" rx="5" ry="5" fill="#fff2e8" stroke="#fa8c16" stroke-width="2"/>
      <g transform="translate(60, 60)">
        <!-- Camera view frustum -->
        <line x1="0" y1="0" x2="-30" y2="-30" stroke="#fa8c16" stroke-width="0.5"/>
        <line x1="0" y1="0" x2="30" y2="-30" stroke="#fa8c16" stroke-width="0.5"/>
        <line x1="0" y1="0" x2="-30" y2="30" stroke="#fa8c16" stroke-width="0.5"/>
        <line x1="0" y1="0" x2="30" y2="30" stroke="#fa8c16" stroke-width="0.5"/>
        <line x1="-30" y1="-30" x2="30" y2="-30" stroke="#fa8c16" stroke-width="0.5"/>
        <line x1="-30" y1="30" x2="30" y2="30" stroke="#fa8c16" stroke-width="0.5"/>
        <line x1="-30" y1="-30" x2="-30" y2="30" stroke="#fa8c16" stroke-width="0.5"/>
        <line x1="30" y1="-30" x2="30" y2="30" stroke="#fa8c16" stroke-width="0.5"/>
        <!-- Cube in view space -->
        <g transform="translate(0, 0) scale(0.8)">
          <polygon points="-20,-20 20,-20 20,20 -20,20" fill="#fa8c16" fill-opacity="0.6" stroke="#fa8c16" stroke-width="1.5"/>
          <polygon points="-20,-20 -10,-30 30,-30 20,-20" fill="#fa8c16" fill-opacity="0.8" stroke="#fa8c16" stroke-width="1.5"/>
          <polygon points="20,-20 30,-30 30,10 20,20" fill="#fa8c16" fill-opacity="0.7" stroke="#fa8c16" stroke-width="1.5"/>
        </g>
      </g>
      <text x="60" y="150" font-family="Arial, sans-serif" font-size="16" text-anchor="middle" fill="#888">View Space</text>
      <text x="60" y="170" font-family="Arial, sans-serif" font-size="12" text-anchor="middle" fill="#888">(Camera-relative)</text>
    </g>
    
    <!-- Arrow 3 -->
    <g transform="translate(470, 60)">
      <line x1="10" y1="0" x2="50" y2="0" stroke="#888" stroke-width="2"/>
      <polygon points="50,0 40,-5 40,5" fill="#888"/>
      <text x="30" y="-10" font-family="Arial, sans-serif" font-size="12" text-anchor="middle" fill="#888">Projection Matrix</text>
    </g>
    
    <!-- Clip Space -->
    <g transform="translate(540, 0)">
      <rect x="0" y="0" width="120" height="120" rx="5" ry="5" fill="#f9f0ff" stroke="#722ed1" stroke-width="2"/>
      <g transform="translate(60, 60)">
        <!-- Clip space cube -->
        <rect x="-30" y="-30" width="60" height="60" fill="none" stroke="#722ed1" stroke-width="1.5" stroke-dasharray="4,2"/>
        <!-- Homogeneous coordinates representation -->
        <g transform="translate(0, 0) scale(0.7)">
          <polygon points="-20,-20 20,-20 20,20 -20,20" fill="#722ed1" fill-opacity="0.6" stroke="#722ed1" stroke-width="1.5"/>
          <polygon points="-20,-20 -10,-30 30,-30 20,-20" fill="#722ed1" fill-opacity="0.8" stroke="#722ed1" stroke-width="1.5"/>
          <polygon points="20,-20 30,-30 30,10 20,20" fill="#722ed1" fill-opacity="0.7" stroke="#722ed1" stroke-width="1.5"/>
        </g>
        <text x="0" y="-20" font-family="monospace" font-size="9" text-anchor="middle" fill="#722ed1">(x,y,z,w)</text>
      </g>
      <text x="60" y="150" font-family="Arial, sans-serif" font-size="16" text-anchor="middle" fill="#888">Clip Space</text>
      <text x="60" y="170" font-family="Arial, sans-serif" font-size="12" text-anchor="middle" fill="#888">(Homogeneous coords)</text>
    </g>
    
    <!-- Arrow 4 -->
    <g transform="translate(660, 60)">
      <line x1="10" y1="0" x2="50" y2="0" stroke="#888" stroke-width="2"/>
      <polygon points="50,0 40,-5 40,5" fill="#888"/>
      <text x="30" y="-10" font-family="Arial, sans-serif" font-size="12" text-anchor="middle" fill="#888">รท w</text>
    </g>
    
    <!-- NDC Space -->
    <g transform="translate(720, 0)">
      <rect x="0" y="0" width="120" height="120" rx="5" ry="5" fill="#fff0f6" stroke="#eb2f96" stroke-width="2"/>
      <g transform="translate(60, 60)">
        <!-- NDC cube -->
        <rect x="-30" y="-30" width="60" height="60" fill="none" stroke="#eb2f96" stroke-width="1.5"/>
        <line x1="-30" y1="-30" x2="30" y2="30" stroke="#eb2f96" stroke-width="0.5" stroke-dasharray="3,3"/>
        <line x1="30" y1="-30" x2="-30" y2="30" stroke="#eb2f96" stroke-width="0.5" stroke-dasharray="3,3"/>
        <!-- Cube in NDC -->
        <g transform="translate(0, 0) scale(0.5)">
          <polygon points="-20,-20 20,-20 20,20 -20,20" fill="#eb2f96" fill-opacity="0.6" stroke="#eb2f96" stroke-width="1.5"/>
          <polygon points="-20,-20 -10,-30 30,-30 20,-20" fill="#eb2f96" fill-opacity="0.8" stroke="#eb2f96" stroke-width="1.5"/>
          <polygon points="20,-20 30,-30 30,10 20,20" fill="#eb2f96" fill-opacity="0.7" stroke="#eb2f96" stroke-width="1.5"/>
        </g>
      </g>
      <text x="60" y="150" font-family="Arial, sans-serif" font-size="16" text-anchor="middle" fill="#888">NDC Space</text>
      <text x="60" y="170" font-family="Arial, sans-serif" font-size="12" text-anchor="middle" fill="#888">(Normalized Device Coords)</text>
    </g>
  </g>
  
  <!-- Additional notes -->
  <text x="500" y="390" font-family="Arial, sans-serif" font-size="14" text-anchor="middle" fill="#888">WebGL Pipeline: Each space serves a specific purpose in the rendering process</text>
  <text x="500" y="370" font-family="Arial, sans-serif" font-size="12" text-anchor="middle" fill="#888">From modeling to pixels, transformations power 3D graphics</text>
</svg>